<?xml version="1.0" encoding="utf-8"?>
<!-- Generator: Adobe Illustrator 17.0.0, SVG Export Plug-In . SVG Version: 6.00 Build 0)  -->
<!DOCTYPE svg PUBLIC "-//W3C//DTD SVG 1.1//EN" "http://www.w3.org/Graphics/SVG/1.1/DTD/svg11.dtd">
<svg version="1.1" id="Capa_1" xmlns="http://www.w3.org/2000/svg" xmlns:xlink="http://www.w3.org/1999/xlink" x="0px" y="0px"
	 width="64.375px" height="65.25px" viewBox="0 0 64.375 65.25" enable-background="new 0 0 64.375 65.25" xml:space="preserve">
<path fill="#0066B3" d="M63.291,12.456c0-5.393-4.867-10.264-10.264-10.264H11.973c-5.396,0-10.264,4.871-10.264,10.264v41.054
	c0,5.393,4.867,10.264,10.264,10.264H32.5V40.511h-7.527V30.247H32.5v-3.999c0-6.896,5.179-13.107,11.546-13.107h8.296v10.264
	h-8.296c-0.908,0-1.968,1.102-1.968,2.753v4.089h10.264v10.264H42.078v23.263h10.949c5.396,0,10.264-4.871,10.264-10.264V12.456z
	 M63.291,12.456"/>
</svg>
