<?xml version="1.0" encoding="utf-8"?>
<!-- Generator: Adobe Illustrator 17.0.0, SVG Export Plug-In . SVG Version: 6.00 Build 0)  -->
<!DOCTYPE svg PUBLIC "-//W3C//DTD SVG 1.1//EN" "http://www.w3.org/Graphics/SVG/1.1/DTD/svg11.dtd">
<svg version="1.1" id="Capa_1" xmlns="http://www.w3.org/2000/svg" xmlns:xlink="http://www.w3.org/1999/xlink" x="0px" y="0px"
	 width="42.621px" height="42.621px" viewBox="0 0 42.621 42.621" enable-background="new 0 0 42.621 42.621" xml:space="preserve">
<g>
	<g>
		
			<radialGradient id="SVGID_1_" cx="-7215.791" cy="-5304.3018" r="94.6714" fx="-7219.6074" fy="-5298.8496" gradientTransform="matrix(0.2372 0 0 0.2372 1726.6063 1268.8033)" gradientUnits="userSpaceOnUse">
			<stop  offset="0" style="stop-color:#C7EAFB"/>
			<stop  offset="0.0878" style="stop-color:#C2E7F9"/>
			<stop  offset="0.1901" style="stop-color:#B4DDF4"/>
			<stop  offset="0.2997" style="stop-color:#9DCEEC"/>
			<stop  offset="0.4144" style="stop-color:#7CB8E0"/>
			<stop  offset="0.5331" style="stop-color:#529CD1"/>
			<stop  offset="0.6533" style="stop-color:#1F7BBE"/>
			<stop  offset="0.7191" style="stop-color:#0066B3"/>
			<stop  offset="1" style="stop-color:#00599D"/>
		</radialGradient>
		<path fill="url(#SVGID_1_)" d="M1.789,21.317c0-10.791,8.733-19.538,19.531-19.538c10.778,0,19.512,8.747,19.512,19.538
			c0,10.778-8.734,19.525-19.512,19.525C10.522,40.842,1.789,32.095,1.789,21.317z"/>
	</g>
	<path fill="#231F20" d="M21.32,40.473c10.337,0,18.734-8.391,18.734-18.747c0-10.356-8.397-18.747-18.734-18.747
		c-10.356,0-18.753,8.391-18.753,18.747C2.568,32.082,10.964,40.473,21.32,40.473z M37.211,30.908
		c-0.086,0.145-0.244,0.211-0.382,0.191l-2.612-0.574c-2.817,4.116-7.546,6.821-12.896,6.821c-5.369,0-10.105-2.704-12.915-6.821
		l-2.599,0.574c-0.158,0.019-0.323-0.046-0.396-0.191c-0.073-0.132-0.073-0.304,0.026-0.422l1.808-1.979
		c-0.996-2.052-1.55-4.354-1.55-6.781c0-8.239,6.365-14.987,14.446-15.58l0.824-2.553c0.053-0.138,0.185-0.231,0.356-0.231
		c0.152,0,0.284,0.092,0.35,0.231l0.798,2.553c8.093,0.594,14.459,7.342,14.459,15.58c0,2.428-0.554,4.73-1.55,6.781l1.808,1.979
		C37.283,30.591,37.296,30.776,37.211,30.908z"/>
	<path fill="#231F20" d="M36.841,30.559l-3.918-4.189c-0.554,0.238-1.207,0.224-1.748-0.099c-0.567-0.323-0.897-0.878-0.969-1.465
		v0.007c-0.112-0.884-0.607-1.715-1.445-2.19l-1.59-0.923l7.084-4.09l-0.765-1.359l-7.883,4.551l-1.366-0.792v-1.583l7.87-4.545
		l-0.778-1.352l-7.091,4.09v-1.827c0-0.956-0.455-1.814-1.18-2.355l0,0c-0.468-0.35-0.779-0.924-0.779-1.557
		c0-0.64,0.31-1.214,0.779-1.563l0.013-0.007l-1.656-5.501C21.4,3.771,21.36,3.719,21.32,3.719c-0.059,0-0.119,0.039-0.119,0.092
		l-1.649,5.508c0.475,0.35,0.785,0.924,0.785,1.563c0,0.633-0.31,1.207-0.785,1.557h0.02c-0.726,0.541-1.181,1.398-1.181,2.355
		v1.827l-7.104-4.09l-0.779,1.352l7.883,4.545v1.583l-1.366,0.792l-7.882-4.551L8.365,17.61l7.085,4.09l-1.59,0.923l0,0
		c-0.825,0.475-1.333,1.306-1.431,2.19v-0.007c-0.086,0.587-0.416,1.141-0.97,1.465c-0.554,0.323-1.207,0.336-1.761,0.099v0.007
		L5.78,30.559c-0.046,0.033-0.059,0.092-0.046,0.139c0.046,0.046,0.099,0.066,0.145,0.039l5.594-1.306
		c0.073-0.594,0.416-1.148,0.957-1.471c0.567-0.31,1.207-0.336,1.741-0.099v-0.006c0.824,0.35,1.794,0.323,2.619-0.152l1.603-0.924
		v8.192h1.55v-9.09l1.378-0.791l1.359,0.791v9.09h1.563v-8.192l1.59,0.924c0.825,0.475,1.808,0.501,2.612,0.152v0.006
		c0.541-0.237,1.194-0.224,1.748,0.099c0.554,0.323,0.897,0.877,0.956,1.464l0.013,0.007l5.58,1.306
		c0.04,0.007,0.112,0.007,0.145-0.039C36.901,30.651,36.901,30.591,36.841,30.559z M21.32,23.283l-1.378-0.791v-1.576l1.378-0.785
		l1.359,0.785v1.576L21.32,23.283z M19.942,14.794c0-0.759,0.62-1.372,1.378-1.372c0.752,0,1.359,0.613,1.359,1.372v2.737
		l-1.359,0.791l-1.378-0.791V14.794z M16.017,26.343c-0.666,0.37-1.491,0.158-1.873-0.501c-0.369-0.653-0.158-1.491,0.501-1.867
		l2.381-1.365l1.366,0.785v1.577L16.017,26.343z M28.477,25.842c-0.369,0.66-1.207,0.871-1.879,0.501l-2.355-1.372v-1.577
		l1.366-0.785l2.368,1.365C28.629,24.352,28.86,25.189,28.477,25.842z M28.761,22.623L28.761,22.623h0.013H28.761z M25.845,27.703
		h-0.013l0,0H25.845z M16.789,27.703L16.789,27.703h-0.02H16.789z"/>
	
		<radialGradient id="SVGID_2_" cx="-13190.3291" cy="-7342.9878" r="375.0842" gradientTransform="matrix(0.1184 0 0 0.1184 1564.5089 872.7575)" gradientUnits="userSpaceOnUse">
		<stop  offset="0" style="stop-color:#E3EAEE"/>
		<stop  offset="0.1822" style="stop-color:#EEF2F4"/>
		<stop  offset="0.3876" style="stop-color:#FFFFFF"/>
		<stop  offset="0.4581" style="stop-color:#FBFCFC"/>
		<stop  offset="0.5247" style="stop-color:#F0F1F4"/>
		<stop  offset="0.5898" style="stop-color:#DDE0E5"/>
		<stop  offset="0.6539" style="stop-color:#C2C8D1"/>
		<stop  offset="0.7167" style="stop-color:#A0A9B8"/>
		<stop  offset="0.7416" style="stop-color:#909BAC"/>
		<stop  offset="0.7764" style="stop-color:#A7B0BE"/>
		<stop  offset="0.8501" style="stop-color:#D1D7E1"/>
		<stop  offset="0.8876" style="stop-color:#E2E6EE"/>
		<stop  offset="0.9038" style="stop-color:#D9DEE7"/>
		<stop  offset="0.9303" style="stop-color:#C1C9D4"/>
		<stop  offset="0.9636" style="stop-color:#99A6B6"/>
		<stop  offset="1" style="stop-color:#667A8E"/>
	</radialGradient>
	<path fill="url(#SVGID_2_)" d="M21.32,40.064c10.337,0,18.734-8.397,18.734-18.747c0-10.356-8.397-18.753-18.734-18.753
		c-10.356,0-18.753,8.397-18.753,18.753C2.568,31.667,10.964,40.064,21.32,40.064z M37.211,30.499
		c-0.086,0.138-0.244,0.211-0.382,0.185l-2.612-0.567c-2.817,4.116-7.546,6.821-12.896,6.821c-5.369,0-10.105-2.704-12.915-6.821
		l-2.599,0.567c-0.158,0.026-0.323-0.047-0.396-0.185c-0.073-0.138-0.073-0.31,0.026-0.428l1.808-1.972
		c-0.996-2.058-1.55-4.354-1.55-6.781c0-8.245,6.365-14.987,14.446-15.587l0.824-2.553c0.053-0.138,0.185-0.231,0.356-0.231
		c0.152,0,0.284,0.092,0.35,0.231l0.798,2.553c8.093,0.6,14.459,7.342,14.459,15.587c0,2.428-0.554,4.723-1.55,6.781l1.808,1.965
		C37.283,30.182,37.296,30.361,37.211,30.499z"/>
	
		<linearGradient id="SVGID_3_" gradientUnits="userSpaceOnUse" x1="-7442.4199" y1="-5364.2065" x2="-7332.0938" y2="-5253.8804" gradientTransform="matrix(0.2372 0 0 0.2372 1773.1423 1280.1926)">
		<stop  offset="0" style="stop-color:#FFFFFF"/>
		<stop  offset="1" style="stop-color:#58595B"/>
	</linearGradient>
	<path fill="url(#SVGID_3_)" d="M21.32,40.064c10.337,0,18.734-8.397,18.734-18.747c0-10.356-8.397-18.753-18.734-18.753
		c-10.356,0-18.753,8.397-18.753,18.753C2.568,31.667,10.964,40.064,21.32,40.064z M2.666,21.317
		c0-10.29,8.351-18.654,18.654-18.654c10.277,0,18.635,8.364,18.635,18.654c0,10.29-8.357,18.654-18.635,18.654
		C11.017,39.971,2.666,31.607,2.666,21.317z"/>
	
		<linearGradient id="SVGID_4_" gradientUnits="userSpaceOnUse" x1="-7342.7397" y1="-5258.165" x2="-7426.2656" y2="-5341.6914" gradientTransform="matrix(0.2372 0 0 0.2372 1773.1423 1280.1926)">
		<stop  offset="0" style="stop-color:#FFFFFF"/>
		<stop  offset="1" style="stop-color:#58595B"/>
	</linearGradient>
	<path fill="url(#SVGID_4_)" d="M37.257,30.004l-1.768-1.919c1.01-2.124,1.537-4.406,1.537-6.768c0-4.004-1.504-7.803-4.235-10.725
		c-2.685-2.889-6.333-4.644-10.251-4.947l-0.785-2.493l0,0l0,0c-0.086-0.185-0.251-0.304-0.436-0.304
		c-0.204,0-0.389,0.119-0.455,0.304c0,0-0.673,2.111-0.798,2.493c-3.905,0.304-7.56,2.058-10.258,4.947
		c-2.711,2.922-4.215,6.721-4.215,10.725c0,2.362,0.528,4.644,1.53,6.768l-1.761,1.919l0,0v0.007
		c-0.126,0.158-0.126,0.369-0.027,0.534c0.086,0.172,0.284,0.264,0.468,0.244c0.013-0.013,2.177-0.475,2.559-0.567
		c2.935,4.261,7.77,6.807,12.955,6.807c5.165,0,9.994-2.546,12.936-6.807l2.546,0.567h0.013h0.013
		c0.185,0.02,0.369-0.073,0.468-0.244C37.396,30.373,37.382,30.169,37.257,30.004z M37.211,30.499
		c-0.086,0.138-0.244,0.211-0.382,0.185l-2.612-0.567c-2.817,4.116-7.546,6.821-12.896,6.821c-5.369,0-10.105-2.704-12.915-6.821
		l-2.599,0.567c-0.158,0.026-0.323-0.047-0.396-0.185c-0.073-0.138-0.073-0.31,0.026-0.428l1.808-1.972
		c-0.996-2.058-1.55-4.354-1.55-6.781c0-8.245,6.365-14.987,14.446-15.587l0.824-2.553c0.053-0.138,0.185-0.231,0.356-0.231
		c0.152,0,0.284,0.092,0.35,0.231l0.798,2.553c8.093,0.6,14.459,7.342,14.459,15.587c0,2.428-0.554,4.723-1.55,6.781l1.808,1.972
		C37.27,30.182,37.296,30.361,37.211,30.499z"/>
	
		<linearGradient id="SVGID_5_" gradientUnits="userSpaceOnUse" x1="1700.5177" y1="-5269.2344" x2="1700.5177" y2="-5280.0669" gradientTransform="matrix(-0.2372 0 0 0.2372 439.736 1280.2151)">
		<stop  offset="0" style="stop-color:#FFFFFF"/>
		<stop  offset="1" style="stop-color:#808285"/>
	</linearGradient>
	<path fill="url(#SVGID_5_)" d="M35.489,28.085l-0.112,0.027l1.794,1.926c0,0,0.085,0.145,0.085,0.304h0.112
		c0-0.184-0.172-0.396-0.172-0.396C37.125,29.866,35.489,28.085,35.489,28.085z"/>
	
		<linearGradient id="SVGID_6_" gradientUnits="userSpaceOnUse" x1="-13169.5889" y1="-7114.0469" x2="-13143.6836" y2="-7114.0469" gradientTransform="matrix(0.1184 0 0 0.1184 1564.5089 872.7575)">
		<stop  offset="0" style="stop-color:#BCBEC0"/>
		<stop  offset="0.0236" style="stop-color:#C3C5C7"/>
		<stop  offset="0.1126" style="stop-color:#D9DADB"/>
		<stop  offset="0.2172" style="stop-color:#EAEBEB"/>
		<stop  offset="0.3458" style="stop-color:#F6F6F7"/>
		<stop  offset="0.5244" style="stop-color:#FDFDFD"/>
		<stop  offset="1" style="stop-color:#FFFFFF"/>
	</linearGradient>
	<path fill="url(#SVGID_6_)" d="M5.338,30.545c0.099,0.172,0.284,0.264,0.468,0.244c0.013-0.013,2.177-0.475,2.559-0.567l0.04-0.105
		l-2.599,0.567c-0.158,0.026-0.31-0.047-0.396-0.185L5.338,30.545z"/>
	
		<linearGradient id="SVGID_7_" gradientUnits="userSpaceOnUse" x1="-13170.1514" y1="-7123.6689" x2="-13153.4854" y2="-7123.6689" gradientTransform="matrix(0.1184 0 0 0.1184 1564.5089 872.7575)">
		<stop  offset="0" style="stop-color:#BCBEC0"/>
		<stop  offset="0.1001" style="stop-color:#A2A3A5"/>
		<stop  offset="0.2301" style="stop-color:#87888A"/>
		<stop  offset="0.372" style="stop-color:#727375"/>
		<stop  offset="0.5296" style="stop-color:#636466"/>
		<stop  offset="0.7154" style="stop-color:#5B5C5E"/>
		<stop  offset="1" style="stop-color:#58595B"/>
	</linearGradient>
	<path fill="url(#SVGID_7_)" d="M5.41,30.499c-0.073-0.138-0.059-0.31,0.026-0.428l1.808-1.972l-0.119-0.013l-1.761,1.919l0,0v0.007
		c-0.112,0.158-0.126,0.369-0.027,0.534L5.41,30.499z"/>
	
		<linearGradient id="SVGID_8_" gradientUnits="userSpaceOnUse" x1="1700.5177" y1="-5269.2344" x2="1700.5177" y2="-5280.0669" gradientTransform="matrix(-0.2372 0 0 0.2372 439.736 1280.2151)">
		<stop  offset="0" style="stop-color:#FFFFFF"/>
		<stop  offset="1" style="stop-color:#A7A9AC"/>
	</linearGradient>
	<path fill="url(#SVGID_8_)" d="M35.489,28.085l-0.112,0.027l1.794,1.926c0,0,0.085,0.145,0.085,0.304h0.112
		c0-0.184-0.172-0.396-0.172-0.396C37.125,29.866,35.489,28.085,35.489,28.085z"/>
	
		<radialGradient id="SVGID_9_" cx="-13190.3271" cy="-7342.9399" r="375.0232" gradientTransform="matrix(0.1184 0 0 0.1184 1564.5089 872.7575)" gradientUnits="userSpaceOnUse">
		<stop  offset="0" style="stop-color:#E3EAEE"/>
		<stop  offset="0.1822" style="stop-color:#EEF2F4"/>
		<stop  offset="0.3876" style="stop-color:#FFFFFF"/>
		<stop  offset="0.4581" style="stop-color:#FBFCFC"/>
		<stop  offset="0.5247" style="stop-color:#F0F1F4"/>
		<stop  offset="0.5898" style="stop-color:#DDE0E5"/>
		<stop  offset="0.6539" style="stop-color:#C2C8D1"/>
		<stop  offset="0.7167" style="stop-color:#A0A9B8"/>
		<stop  offset="0.7416" style="stop-color:#909BAC"/>
		<stop  offset="0.7764" style="stop-color:#A7B0BE"/>
		<stop  offset="0.8501" style="stop-color:#D1D7E1"/>
		<stop  offset="0.8876" style="stop-color:#E2E6EE"/>
		<stop  offset="0.9038" style="stop-color:#D9DEE7"/>
		<stop  offset="0.9303" style="stop-color:#C1C9D4"/>
		<stop  offset="0.9636" style="stop-color:#99A6B6"/>
		<stop  offset="1" style="stop-color:#667A8E"/>
	</radialGradient>
	<path fill="url(#SVGID_9_)" d="M36.841,30.143l-3.918-4.182c-0.554,0.231-1.207,0.218-1.748-0.105
		c-0.567-0.317-0.897-0.871-0.969-1.465v0.013c-0.112-0.884-0.607-1.715-1.445-2.19l-1.59-0.923l7.084-4.096l-0.765-1.352
		l-7.883,4.551l-1.366-0.792v-1.576l7.87-4.558l-0.778-1.352l-7.091,4.11v-1.847c0-0.957-0.455-1.807-1.18-2.348l0,0
		c-0.468-0.356-0.779-0.924-0.779-1.557c0-0.646,0.31-1.214,0.779-1.57h0.013l-1.656-5.501C21.4,3.362,21.36,3.31,21.32,3.31
		c-0.059,0-0.119,0.039-0.119,0.092l-1.649,5.501c0.475,0.356,0.785,0.924,0.785,1.57c0,0.633-0.31,1.201-0.785,1.557h0.02
		c-0.726,0.541-1.181,1.392-1.181,2.348v1.834l-7.104-4.096l-0.779,1.352l7.883,4.551v1.583l-1.366,0.792l-7.882-4.551l-0.779,1.352
		l7.085,4.096l-1.59,0.923l0,0c-0.825,0.475-1.333,1.306-1.431,2.19v-0.013c-0.086,0.594-0.416,1.148-0.97,1.465
		c-0.554,0.323-1.207,0.343-1.761,0.105l0,0L5.78,30.143c-0.046,0.039-0.059,0.092-0.046,0.145c0.046,0.039,0.099,0.059,0.145,0.039
		l5.594-1.306c0.073-0.6,0.416-1.148,0.957-1.464c0.567-0.33,1.207-0.343,1.741-0.106v-0.013c0.824,0.357,1.794,0.33,2.619-0.151
		l1.603-0.917v8.192h1.55v-9.096l1.378-0.785l1.359,0.785v9.096h1.563v-8.199l1.59,0.924c0.825,0.481,1.808,0.508,2.612,0.151v0.013
		c0.541-0.237,1.194-0.224,1.748,0.093c0.554,0.323,0.897,0.877,0.956,1.477h0.013l5.58,1.306c0.04,0.013,0.112,0,0.145-0.039
		C36.901,30.235,36.901,30.182,36.841,30.143z M21.32,22.874l-1.378-0.791v-1.583l1.378-0.785l1.359,0.785v1.583L21.32,22.874z
		 M19.942,14.378c0-0.752,0.62-1.372,1.378-1.372c0.752,0,1.359,0.62,1.359,1.372v2.744l-1.359,0.791l-1.378-0.791V14.378z
		 M16.017,25.934c-0.666,0.383-1.491,0.152-1.873-0.501c-0.369-0.66-0.158-1.491,0.501-1.873l2.381-1.359l1.366,0.779v1.583
		L16.017,25.934z M28.477,25.433c-0.369,0.653-1.207,0.884-1.879,0.501l-2.355-1.372V22.98l1.366-0.779l2.368,1.359
		C28.629,23.943,28.86,24.774,28.477,25.433z M28.761,22.214L28.761,22.214h0.013H28.761z M25.845,27.287h-0.013l0,0H25.845z
		 M16.789,27.287L16.789,27.287l-0.02,0.007L16.789,27.287z"/>
	<polygon fill="#FFFFFF" points="21.32,22.98 19.856,22.128 19.942,22.082 21.32,22.867 	"/>
	<polygon fill="#FFFFFF" points="22.765,22.128 21.32,22.98 21.32,22.867 22.679,22.082 	"/>
	<polygon fill="#FFFFFF" points="22.765,22.148 22.765,20.46 22.679,20.512 22.679,22.096 	"/>
	<polygon fill="#C7C8CA" points="22.765,20.46 21.32,19.615 21.32,19.734 22.679,20.512 	"/>
	<polygon fill="#58595B" points="19.856,20.46 21.32,19.615 21.32,19.734 19.942,20.512 	"/>
	<polygon fill="#808285" points="19.856,22.148 19.856,20.46 19.942,20.512 19.942,22.096 	"/>
	
		<linearGradient id="SVGID_10_" gradientUnits="userSpaceOnUse" x1="-13097.6816" y1="-7156.7715" x2="-13058.7832" y2="-7156.7715" gradientTransform="matrix(0.1184 0 0 0.1184 1564.5089 872.7575)">
		<stop  offset="0" style="stop-color:#A7A9AC"/>
		<stop  offset="0.0784" style="stop-color:#C1C2C4"/>
		<stop  offset="0.1729" style="stop-color:#D7D8DA"/>
		<stop  offset="0.2822" style="stop-color:#E9EAEA"/>
		<stop  offset="0.4138" style="stop-color:#F6F6F6"/>
		<stop  offset="0.5902" style="stop-color:#FDFDFD"/>
		<stop  offset="1" style="stop-color:#FFFFFF"/>
	</linearGradient>
	<path fill="url(#SVGID_10_)" d="M13.86,24.727c-0.013,0.264,0.059,0.528,0.197,0.759c0.403,0.699,1.293,0.937,1.992,0.534
		l2.414-1.392l-0.086-0.053l-2.375,1.359c-0.653,0.383-1.491,0.158-1.873-0.494c-0.125-0.218-0.172-0.468-0.172-0.713H13.86z"/>
	
		<linearGradient id="SVGID_11_" gradientUnits="userSpaceOnUse" x1="-13097.6719" y1="-7173.5303" x2="-13071.042" y2="-7173.5303" gradientTransform="matrix(0.1184 0 0 0.1184 1564.5089 872.7575)">
		<stop  offset="0" style="stop-color:#A7A9AC"/>
		<stop  offset="0.0557" style="stop-color:#9FA1A4"/>
		<stop  offset="0.3124" style="stop-color:#808284"/>
		<stop  offset="0.5607" style="stop-color:#6A6B6D"/>
		<stop  offset="0.7948" style="stop-color:#5D5E60"/>
		<stop  offset="1" style="stop-color:#58595B"/>
	</linearGradient>
	<path fill="url(#SVGID_11_)" d="M13.959,24.727c0-0.455,0.244-0.903,0.686-1.154l2.369-1.372v-0.105l-2.428,1.398
		c-0.343,0.191-0.567,0.515-0.666,0.884c-0.033,0.119-0.059,0.231-0.059,0.35H13.959z"/>
	<path fill="#FFFFFF" d="M28.761,24.707c0.013,0.264-0.059,0.528-0.185,0.759c-0.396,0.693-1.306,0.944-2.005,0.541l-2.414-1.398
		l0.085-0.046l2.375,1.359c0.667,0.376,1.491,0.158,1.873-0.501c0.126-0.224,0.185-0.475,0.185-0.713H28.761z"/>
	
		<linearGradient id="SVGID_12_" gradientUnits="userSpaceOnUse" x1="-12998.4131" y1="-7173.8491" x2="-12971.8945" y2="-7173.8491" gradientTransform="matrix(0.1184 0 0 0.1184 1564.5089 872.7853)">
		<stop  offset="0" style="stop-color:#808285"/>
		<stop  offset="0.1606" style="stop-color:#8E8F92"/>
		<stop  offset="0.4615" style="stop-color:#B1B3B4"/>
		<stop  offset="0.8674" style="stop-color:#EBEBEC"/>
		<stop  offset="1" style="stop-color:#FFFFFF"/>
	</linearGradient>
	<path fill="url(#SVGID_12_)" d="M28.675,24.721c-0.013-0.462-0.257-0.91-0.68-1.148l-2.374-1.372v-0.119l2.414,1.405
		c0.343,0.191,0.581,0.508,0.68,0.891c0.033,0.106,0.046,0.231,0.046,0.343H28.675z"/>
	<polygon fill="#FFFFFF" points="18.464,24.629 18.464,22.94 18.379,22.993 18.379,24.576 	"/>
	<polygon fill="#C7C8CA" points="17.014,22.096 18.464,22.94 18.379,22.993 17.014,22.201 	"/>
	<polygon fill="#808285" points="24.144,34.47 24.144,26.198 24.242,26.363 24.242,34.562 	"/>
	<polygon fill="#58595B" points="22.679,34.562 24.242,34.562 24.144,34.47 22.765,34.47 	"/>
	<polygon fill="#FFFFFF" points="22.679,25.46 22.679,34.562 22.765,34.47 22.765,25.407 	"/>
	<polygon fill="#C7C8CA" points="21.301,24.563 22.765,25.407 22.679,25.46 21.301,24.668 	"/>
	<polygon fill="#58595B" points="19.856,25.407 21.32,24.576 21.32,24.681 19.942,25.466 	"/>
	<polygon fill="#808285" points="19.856,34.47 19.856,25.407 19.942,25.466 19.942,34.562 	"/>
	<polygon fill="#58595B" points="18.392,34.562 19.955,34.562 19.856,34.47 18.478,34.47 	"/>
	<polygon fill="#FFFFFF" points="18.379,26.363 18.379,34.562 18.478,34.47 18.464,26.198 	"/>
	<path fill="#58595B" d="M18.392,26.377l-1.603,0.917c-0.824,0.475-1.794,0.501-2.619,0.145v0.013
		c-0.534-0.237-1.174-0.211-1.741,0.106c-0.541,0.316-0.884,0.87-0.957,1.464l-0.086-0.079c0.099-0.62,0.455-1.147,0.997-1.471
		c0.567-0.323,1.233-0.363,1.833-0.112h-0.013c0.838,0.356,1.761,0.303,2.54-0.152l1.735-0.996L18.392,26.377z"/>
	<path fill="#58595B" d="M5.733,30.275c0.034,0.052,0.086,0.066,0.145,0.039l5.594-1.293l-0.086-0.079l-5.534,1.28L5.733,30.275z"/>
	<path fill="#FFFFFF" d="M9.698,25.948L5.78,30.143c-0.046,0.026-0.073,0.092-0.046,0.132l0.119-0.053l3.859-4.156L9.698,25.948z"/>
	<path fill="#FFFFFF" d="M15.45,21.284l-1.603,0.923c-0.825,0.475-1.32,1.306-1.438,2.183l0,0c-0.066,0.594-0.409,1.141-0.963,1.465
		c-0.554,0.317-1.207,0.336-1.748,0.092l0.013,0.119c0.587,0.224,1.24,0.171,1.774-0.132c0.574-0.33,0.944-0.897,1.009-1.53l0,0
		c0.119-0.891,0.627-1.662,1.412-2.117l1.728-1.003H15.45z"/>
	<polygon fill="#58595B" points="25.608,22.082 24.144,22.933 24.242,22.993 25.608,22.201 	"/>
	<polygon fill="#808285" points="24.157,24.609 24.157,22.914 24.242,22.98 24.242,24.549 	"/>
	<polygon fill="#FFFFFF" points="31.288,12.241 24.144,16.377 24.242,16.212 31.334,12.115 	"/>
	<polygon fill="#C7C8CA" points="32.112,13.468 31.334,12.115 31.288,12.241 31.987,13.441 	"/>
	<polygon fill="#58595B" points="24.242,18.026 32.112,13.481 31.987,13.441 24.144,17.979 	"/>
	<polygon fill="#808285" points="24.144,19.655 24.144,17.979 24.242,18.026 24.242,19.609 	"/>
	<polygon fill="#FFFFFF" points="25.608,20.499 24.144,19.655 24.242,19.596 25.608,20.394 	"/>
	<polygon fill="#FFFFFF" points="33.444,15.961 25.608,20.499 25.608,20.394 33.478,15.842 	"/>
	<polygon fill="#C7C8CA" points="34.256,17.195 33.478,15.842 33.444,15.961 34.13,17.162 	"/>
	<polygon fill="#58595B" points="27.185,21.291 34.256,17.195 34.143,17.162 26.987,21.291 	"/>
	
		<linearGradient id="SVGID_13_" gradientUnits="userSpaceOnUse" x1="-12986.8838" y1="-7170.6899" x2="-12936.7402" y2="-7170.6899" gradientTransform="matrix(0.1184 0 0 0.1184 1564.5089 872.7575)">
		<stop  offset="0" style="stop-color:#FFFFFF"/>
		<stop  offset="0.2108" style="stop-color:#FDFDFD"/>
		<stop  offset="0.3195" style="stop-color:#F5F5F5"/>
		<stop  offset="0.4049" style="stop-color:#E8E8E9"/>
		<stop  offset="0.4776" style="stop-color:#D5D6D7"/>
		<stop  offset="0.5169" style="stop-color:#C7C8CA"/>
		<stop  offset="0.555" style="stop-color:#DADADC"/>
		<stop  offset="0.6053" style="stop-color:#EBEBEC"/>
		<stop  offset="0.668" style="stop-color:#F6F6F7"/>
		<stop  offset="0.7559" style="stop-color:#FDFDFD"/>
		<stop  offset="1" style="stop-color:#FFFFFF"/>
	</linearGradient>
	<path fill="url(#SVGID_13_)" d="M27.171,21.284l1.59,0.923c0.824,0.482,1.332,1.306,1.431,2.197l0.013-0.013
		c0.073,0.594,0.402,1.141,0.956,1.465c0.554,0.317,1.207,0.336,1.761,0.105l-0.033,0.106c-0.581,0.231-1.234,0.185-1.775-0.132
		c-0.567-0.33-0.937-0.884-1.009-1.53l0,0c-0.112-0.891-0.607-1.662-1.392-2.117l-1.729-1.003H27.171z"/>
	<path fill="#C7C8CA" d="M36.888,30.281c0.013-0.046,0-0.105-0.046-0.138l-3.918-4.182l-0.033,0.106l3.878,4.156L36.888,30.281z"/>
	<path fill="#808285" d="M31.149,29.022l5.594,1.306c0.04,0.02,0.112,0.013,0.145-0.039l-0.119-0.066l-5.541-1.28L31.149,29.022z"/>
	
		<linearGradient id="SVGID_14_" gradientUnits="userSpaceOnUse" x1="-13010.874" y1="-7138.1255" x2="-12951.04" y2="-7138.1255" gradientTransform="matrix(0.1184 0 0 0.1184 1564.5089 872.7575)">
		<stop  offset="0.0112" style="stop-color:#C7C8CA"/>
		<stop  offset="0.1277" style="stop-color:#C4C5C7"/>
		<stop  offset="0.2184" style="stop-color:#BABBBD"/>
		<stop  offset="0.3004" style="stop-color:#AAABAD"/>
		<stop  offset="0.3773" style="stop-color:#929395"/>
		<stop  offset="0.45" style="stop-color:#747577"/>
		<stop  offset="0.5056" style="stop-color:#58595B"/>
		<stop  offset="0.6695" style="stop-color:#9A9A9B"/>
		<stop  offset="0.8236" style="stop-color:#D0D1D1"/>
		<stop  offset="0.9379" style="stop-color:#F2F2F2"/>
		<stop  offset="1" style="stop-color:#FFFFFF"/>
	</linearGradient>
	<path fill="url(#SVGID_14_)" d="M24.242,26.363l1.577,0.924c0.838,0.475,1.821,0.508,2.625,0.151l0,0
		c0.541-0.231,1.194-0.211,1.748,0.106c0.554,0.323,0.884,0.877,0.956,1.464l0.08-0.079c-0.08-0.607-0.449-1.155-0.99-1.465
		c-0.554-0.316-1.24-0.363-1.834-0.105v-0.013c-0.824,0.356-1.748,0.303-2.526-0.145l-1.734-1.003L24.242,26.363z"/>
	<g>
		<polygon fill="#FFFFFF" points="22.778,14.378 22.778,17.162 22.679,17.109 22.679,14.378 		"/>
		
			<linearGradient id="SVGID_15_" gradientUnits="userSpaceOnUse" x1="-13047.3174" y1="-7256.0352" x2="-13022" y2="-7256.0352" gradientTransform="matrix(0.1184 0 0 0.1184 1564.5299 872.7604)">
			<stop  offset="0" style="stop-color:#808285"/>
			<stop  offset="1" style="stop-color:#FFFFFF"/>
		</linearGradient>
		<path fill="url(#SVGID_15_)" d="M19.856,14.378c0-0.818,0.64-1.464,1.445-1.464c0.403,0,0.772,0.158,1.042,0.435
			c0.264,0.277,0.422,0.633,0.422,1.029h-0.086c0-0.752-0.606-1.372-1.378-1.372c-0.752,0-1.359,0.62-1.359,1.372H19.856z"/>
		<polygon fill="#808285" points="19.856,14.378 19.856,17.162 19.955,17.109 19.955,14.378 		"/>
		<polygon fill="#FFFFFF" points="19.856,17.162 21.32,18.006 21.32,17.9 19.955,17.109 		"/>
		<polygon fill="#FFFFFF" points="22.778,17.162 21.32,18.006 21.32,17.9 22.679,17.109 		"/>
		<polygon fill="#C7C8CA" points="8.491,17.162 15.661,21.284 15.463,21.291 8.365,17.195 		"/>
		<polygon fill="#FFFFFF" points="9.144,15.842 8.365,17.195 8.491,17.162 9.19,15.961 		"/>
		<polygon fill="#FFFFFF" points="17.026,20.394 9.144,15.842 9.19,15.961 17.026,20.499 		"/>
		<polygon fill="#FFFFFF" points="18.491,19.655 17.026,20.499 17.026,20.394 18.392,19.602 		"/>
		<polygon fill="#FFFFFF" points="18.491,17.96 18.491,19.655 18.392,19.602 18.392,18.019 		"/>
		<polygon fill="#C7C8CA" points="10.648,13.441 18.491,17.96 18.392,18.019 10.522,13.468 		"/>
		<polygon fill="#FFFFFF" points="11.301,12.115 10.522,13.468 10.648,13.441 11.334,12.241 		"/>
		<polygon fill="#FFFFFF" points="18.392,16.212 11.301,12.115 11.334,12.241 18.491,16.377 		"/>
		<path fill="#FFFFFF" d="M18.392,16.212v-1.834c0-0.963,0.455-1.807,1.181-2.348l0,0c0.468-0.356,0.778-0.924,0.778-1.557
			c0-0.646-0.31-1.214-0.778-1.57l0.099-0.039c0.494,0.396,0.778,0.976,0.778,1.609c0,0.647-0.31,1.247-0.825,1.636v-0.007
			c-0.725,0.548-1.134,1.379-1.134,2.276v1.999L18.392,16.212z"/>
		<path fill="#FFFFFF" d="M21.32,3.31c-0.046,0-0.085,0.039-0.085,0.092l-1.662,5.501l0.099-0.039l1.648-5.422V3.31z"/>
		<path fill="#FFFFFF" d="M23.095,8.903l-1.662-5.501C21.419,3.362,21.387,3.31,21.32,3.31v0.132l1.676,5.422L23.095,8.903z"/>
		
			<linearGradient id="SVGID_16_" gradientUnits="userSpaceOnUse" x1="-7377.5366" y1="-5360.8403" x2="-7377.5366" y2="-5328.9819" gradientTransform="matrix(0.2372 0 0 0.2372 1773.1849 1280.1926)">
			<stop  offset="0" style="stop-color:#58595B"/>
			<stop  offset="0.0558" style="stop-color:#616163"/>
			<stop  offset="0.1451" style="stop-color:#78797A"/>
			<stop  offset="0.2567" style="stop-color:#9E9EA0"/>
			<stop  offset="0.3849" style="stop-color:#D2D2D3"/>
			<stop  offset="0.4831" style="stop-color:#FFFFFF"/>
			<stop  offset="0.7142" style="stop-color:#C9C9CB"/>
			<stop  offset="1" style="stop-color:#808285"/>
		</linearGradient>
		<path fill="url(#SVGID_16_)" d="M24.256,16.212v-1.834c0-0.963-0.468-1.807-1.18-2.348l0,0c-0.469-0.356-0.779-0.924-0.779-1.557
			c0-0.646,0.31-1.214,0.798-1.57l-0.099-0.039c-0.501,0.389-0.785,0.989-0.785,1.609c0,0.633,0.297,1.253,0.825,1.636l-0.013-0.007
			c0.726,0.548,1.135,1.379,1.135,2.276v1.999L24.256,16.212z"/>
	</g>
</g>
</svg>
