<?xml version="1.0" encoding="utf-8"?>
<!-- Generator: Adobe Illustrator 17.0.0, SVG Export Plug-In . SVG Version: 6.00 Build 0)  -->
<!DOCTYPE svg PUBLIC "-//W3C//DTD SVG 1.1//EN" "http://www.w3.org/Graphics/SVG/1.1/DTD/svg11.dtd">
<svg version="1.1" id="Capa_1" xmlns="http://www.w3.org/2000/svg" xmlns:xlink="http://www.w3.org/1999/xlink" x="0px" y="0px"
	 width="424px" height="124px" viewBox="0 0 424 124" enable-background="new 0 0 424 124" xml:space="preserve">
<g>
	<polygon fill="#0066B3" points="316.326,12.425 316.326,84.069 331.022,84.069 331.022,54.007 343.714,54.007 343.714,84.069 
		358.324,84.069 358.324,12.425 343.742,12.425 343.742,40.957 330.993,40.957 330.993,12.425 	"/>
	<polygon fill="#0066B3" points="203.158,12.425 203.158,84.069 216.621,84.069 216.621,38.524 224.477,84.069 233.435,84.069 
		241.448,38.524 241.448,84.069 254.913,84.069 254.913,12.425 234.952,12.425 229.028,46.866 223.146,12.425 	"/>
	<polygon fill="#0066B3" points="118.792,12.425 127.721,44.433 136.693,12.425 151.273,12.425 135.519,60.56 135.519,84.069 
		119.965,84.069 119.965,60.56 104.225,12.425 	"/>
	<path fill="#0066B3" d="M182.237,12.425H162.82L150.1,84.069h14.481l2.433-17.042h10.961l2.447,17.042h14.596L182.237,12.425z
		 M172.522,28.622l3.605,25.385h-7.24L172.522,28.622z"/>
	<path fill="#0066B3" d="M295.307,12.425h-19.375l-12.791,71.644h14.509l2.475-17.042h10.932l2.46,17.042H308.1L295.307,12.425z
		 M285.577,28.622l3.633,25.385h-7.24L285.577,28.622z"/>
	<path fill="#0066B3" d="M398.803,12.425h-19.445l-12.721,71.644h14.48l2.462-17.042h10.975l2.433,17.042h14.609L398.803,12.425z
		 M389.03,28.622l3.634,25.385h-7.24L389.03,28.622z"/>
	<g>
		<g>
			
				<radialGradient id="SVGID_1_" cx="-6036.1519" cy="-7741.0474" r="205.3667" fx="-6044.4312" fy="-7729.2197" gradientTransform="matrix(0.2372 0 0 0.2372 1472.8829 1861.1176)" gradientUnits="userSpaceOnUse">
				<stop  offset="0" style="stop-color:#C7EAFB"/>
				<stop  offset="0.0878" style="stop-color:#C2E7F9"/>
				<stop  offset="0.1901" style="stop-color:#B4DDF4"/>
				<stop  offset="0.2997" style="stop-color:#9DCEEC"/>
				<stop  offset="0.4144" style="stop-color:#7CB8E0"/>
				<stop  offset="0.5331" style="stop-color:#529CD1"/>
				<stop  offset="0.6533" style="stop-color:#1F7BBE"/>
				<stop  offset="0.7191" style="stop-color:#0066B3"/>
				<stop  offset="1" style="stop-color:#00599D"/>
			</radialGradient>
			<path fill="url(#SVGID_1_)" d="M12.405,48.139c0-23.409,18.945-42.383,42.368-42.383c23.381,0,42.326,18.974,42.326,42.383
				c0,23.381-18.945,42.354-42.326,42.354C31.35,90.494,12.405,71.52,12.405,48.139z"/>
		</g>
		<path fill="#231F20" d="M54.773,89.693c22.423,0,40.638-18.202,40.638-40.667c0-22.465-18.215-40.666-40.638-40.666
			c-22.465,0-40.679,18.201-40.679,40.666C14.094,71.491,32.308,89.693,54.773,89.693z M89.243,68.945
			c-0.186,0.315-0.528,0.457-0.83,0.415l-5.666-1.245c-6.11,8.929-16.369,14.796-27.974,14.796c-11.647,0-21.92-5.866-28.017-14.796
			l-5.638,1.245c-0.344,0.042-0.701-0.1-0.858-0.415c-0.157-0.286-0.157-0.658,0.057-0.916l3.921-4.292
			c-2.16-4.45-3.362-9.444-3.362-14.71c0-17.872,13.807-32.51,31.337-33.797l1.788-5.538c0.115-0.3,0.401-0.5,0.772-0.5
			c0.33,0,0.616,0.2,0.759,0.5l1.732,5.538c17.557,1.288,31.365,15.926,31.365,33.797c0,5.266-1.202,10.26-3.362,14.71l3.921,4.292
			C89.401,68.258,89.43,68.659,89.243,68.945z"/>
		<path fill="#231F20" d="M88.443,68.186L79.943,59.1c-1.202,0.515-2.619,0.487-3.792-0.214c-1.231-0.702-1.946-1.904-2.103-3.177
			v0.014c-0.244-1.917-1.317-3.72-3.134-4.751l-3.449-2.003l15.368-8.872l-1.659-2.948l-17.1,9.873l-2.963-1.717v-3.434
			l17.071-9.859l-1.688-2.933l-15.383,8.872v-3.963c0-2.075-0.987-3.935-2.56-5.108l0,0c-1.016-0.759-1.689-2.004-1.689-3.378
			c0-1.387,0.674-2.633,1.689-3.391l0.029-0.014l-3.592-11.933c-0.042-0.086-0.129-0.2-0.215-0.2c-0.129,0-0.257,0.086-0.257,0.2
			l-3.577,11.948c1.031,0.758,1.703,2.004,1.703,3.391c0,1.374-0.672,2.619-1.703,3.378h0.044c-1.575,1.173-2.562,3.033-2.562,5.108
			v3.963L33.01,29.08l-1.689,2.933l17.1,9.859v3.434l-2.963,1.717L28.36,37.151l-1.689,2.948l15.369,8.872l-3.448,2.003l0,0
			c-1.789,1.03-2.892,2.833-3.105,4.751v-0.014c-0.186,1.273-0.902,2.475-2.104,3.177c-1.202,0.701-2.618,0.73-3.82,0.214v0.014
			l-8.501,9.072c-0.1,0.071-0.129,0.2-0.1,0.301c0.1,0.1,0.215,0.142,0.315,0.085L33.41,65.74c0.157-1.288,0.902-2.49,2.076-3.191
			c1.231-0.672,2.618-0.73,3.777-0.215V62.32c1.788,0.758,3.892,0.701,5.68-0.329l3.477-2.004v17.771h3.362V58.041l2.99-1.717
			l2.948,1.717v19.718h3.391V59.987l3.449,2.004c1.789,1.03,3.921,1.087,5.667,0.329v0.014c1.173-0.515,2.59-0.486,3.792,0.215
			c1.202,0.701,1.946,1.903,2.074,3.176l0.029,0.015l12.105,2.833c0.086,0.015,0.244,0.015,0.315-0.085
			C88.571,68.386,88.571,68.258,88.443,68.186z M54.773,52.403l-2.99-1.717v-3.42l2.99-1.702l2.948,1.702v3.42L54.773,52.403z
			 M51.783,33.988c0-1.646,1.344-2.976,2.99-2.976c1.632,0,2.948,1.331,2.948,2.976v5.938l-2.948,1.717l-2.99-1.717V33.988z
			 M43.269,59.043c-1.444,0.802-3.234,0.344-4.063-1.087c-0.801-1.417-0.344-3.234,1.087-4.05l5.166-2.962l2.963,1.703v3.42
			L43.269,59.043z M70.298,57.956c-0.801,1.431-2.618,1.889-4.077,1.087l-5.109-2.975v-3.42l2.963-1.703l5.137,2.962
			C70.628,54.722,71.129,56.539,70.298,57.956z M70.914,50.973L70.914,50.973h0.029H70.914z M64.589,61.991h-0.029l0,0H64.589z
			 M44.943,61.991L44.943,61.991h-0.042H44.943z"/>
		
			<radialGradient id="SVGID_2_" cx="-10614.2637" cy="-13075.6816" r="813.6545" gradientTransform="matrix(0.1184 0 0 0.1184 1271.2701 1557.3199)" gradientUnits="userSpaceOnUse">
			<stop  offset="0" style="stop-color:#E3EAEE"/>
			<stop  offset="0.1822" style="stop-color:#EEF2F4"/>
			<stop  offset="0.3876" style="stop-color:#FFFFFF"/>
			<stop  offset="0.4581" style="stop-color:#FBFCFC"/>
			<stop  offset="0.5247" style="stop-color:#F0F1F4"/>
			<stop  offset="0.5898" style="stop-color:#DDE0E5"/>
			<stop  offset="0.6539" style="stop-color:#C2C8D1"/>
			<stop  offset="0.7167" style="stop-color:#A0A9B8"/>
			<stop  offset="0.7416" style="stop-color:#909BAC"/>
			<stop  offset="0.7764" style="stop-color:#A7B0BE"/>
			<stop  offset="0.8501" style="stop-color:#D1D7E1"/>
			<stop  offset="0.8876" style="stop-color:#E2E6EE"/>
			<stop  offset="0.9038" style="stop-color:#D9DEE7"/>
			<stop  offset="0.9303" style="stop-color:#C1C9D4"/>
			<stop  offset="0.9636" style="stop-color:#99A6B6"/>
			<stop  offset="1" style="stop-color:#667A8E"/>
		</radialGradient>
		<path fill="url(#SVGID_2_)" d="M54.773,88.806c22.423,0,40.638-18.215,40.638-40.666c0-22.465-18.215-40.68-40.638-40.68
			c-22.465,0-40.679,18.215-40.679,40.68C14.094,70.59,32.308,88.806,54.773,88.806z M89.243,68.058
			c-0.186,0.3-0.528,0.457-0.83,0.401l-5.666-1.231c-6.11,8.929-16.369,14.795-27.974,14.795c-11.647,0-21.92-5.866-28.017-14.795
			l-5.638,1.231c-0.344,0.056-0.701-0.101-0.858-0.401c-0.157-0.3-0.157-0.672,0.057-0.93l3.921-4.278
			c-2.16-4.465-3.362-9.444-3.362-14.71c0-17.886,13.807-32.51,31.337-33.812l1.788-5.538c0.115-0.3,0.401-0.5,0.772-0.5
			c0.33,0,0.616,0.201,0.759,0.5l1.732,5.538C74.82,15.63,88.629,30.253,88.629,48.139c0,5.266-1.202,10.245-3.362,14.71
			l3.921,4.263C89.401,67.37,89.43,67.758,89.243,68.058z"/>
		
			<linearGradient id="SVGID_3_" gradientUnits="userSpaceOnUse" x1="-6298.3726" y1="-7814.8535" x2="-6059.0469" y2="-7575.5278" gradientTransform="matrix(0.2372 0 0 0.2372 1519.4189 1872.5068)">
			<stop  offset="0" style="stop-color:#FFFFFF"/>
			<stop  offset="1" style="stop-color:#58595B"/>
		</linearGradient>
		<path fill="url(#SVGID_3_)" d="M54.773,88.806c22.423,0,40.638-18.215,40.638-40.666c0-22.465-18.215-40.68-40.638-40.68
			c-22.465,0-40.679,18.215-40.679,40.68C14.094,70.59,32.308,88.806,54.773,88.806z M14.308,48.139
			c0-22.322,18.115-40.466,40.465-40.466c22.294,0,40.423,18.144,40.423,40.466c0,22.322-18.129,40.465-40.423,40.465
			C32.423,88.605,14.308,70.462,14.308,48.139z"/>
		
			<linearGradient id="SVGID_4_" gradientUnits="userSpaceOnUse" x1="-6082.1406" y1="-7584.8228" x2="-6263.3306" y2="-7766.0127" gradientTransform="matrix(0.2372 0 0 0.2372 1519.4189 1872.5068)">
			<stop  offset="0" style="stop-color:#FFFFFF"/>
			<stop  offset="1" style="stop-color:#58595B"/>
		</linearGradient>
		<path fill="url(#SVGID_4_)" d="M89.343,66.984l-3.835-4.164c2.19-4.608,3.335-9.558,3.335-14.681
			c0-8.685-3.263-16.927-9.186-23.266C73.833,18.606,65.92,14.8,57.421,14.141l-1.703-5.409l0,0l0,0
			c-0.186-0.4-0.544-0.658-0.945-0.658c-0.443,0-0.843,0.258-0.987,0.658c0,0-1.459,4.579-1.73,5.409
			c-8.472,0.658-16.399,4.465-22.251,10.732c-5.88,6.339-9.143,14.58-9.143,23.266c0,5.123,1.144,10.074,3.32,14.681l-3.821,4.164
			l0,0V67c-0.273,0.342-0.273,0.801-0.058,1.158c0.186,0.372,0.616,0.573,1.016,0.53c0.029-0.029,4.722-1.031,5.552-1.231
			c6.367,9.244,16.856,14.766,28.103,14.766c11.205,0,21.679-5.523,28.06-14.766l5.523,1.231h0.029h0.029
			c0.401,0.043,0.801-0.158,1.016-0.53C89.645,67.785,89.616,67.342,89.343,66.984z M89.243,68.058
			c-0.186,0.3-0.528,0.457-0.83,0.401l-5.666-1.231c-6.11,8.929-16.369,14.795-27.974,14.795c-11.647,0-21.92-5.866-28.017-14.795
			l-5.638,1.231c-0.344,0.056-0.701-0.101-0.858-0.401c-0.157-0.3-0.157-0.672,0.057-0.93l3.921-4.278
			c-2.16-4.465-3.362-9.444-3.362-14.71c0-17.886,13.807-32.51,31.337-33.812l1.788-5.538c0.115-0.3,0.401-0.5,0.772-0.5
			c0.33,0,0.616,0.201,0.759,0.5l1.732,5.538C74.82,15.63,88.629,30.253,88.629,48.139c0,5.266-1.202,10.245-3.362,14.71
			l3.921,4.278C89.372,67.37,89.43,67.758,89.243,68.058z"/>
		
			<linearGradient id="SVGID_5_" gradientUnits="userSpaceOnUse" x1="-249.6187" y1="-7608.7236" x2="-249.6187" y2="-7632.2222" gradientTransform="matrix(-0.2372 0 0 0.2372 28.2172 1872.5293)">
			<stop  offset="0" style="stop-color:#FFFFFF"/>
			<stop  offset="1" style="stop-color:#808285"/>
		</linearGradient>
		<path fill="url(#SVGID_5_)" d="M85.509,62.821l-0.242,0.058l3.892,4.177c0,0,0.185,0.315,0.185,0.658h0.244
			c0-0.4-0.372-0.859-0.372-0.859C89.057,66.684,85.509,62.821,85.509,62.821z"/>
		
			<linearGradient id="SVGID_6_" gradientUnits="userSpaceOnUse" x1="-10569.2734" y1="-12579.0488" x2="-10513.0781" y2="-12579.0488" gradientTransform="matrix(0.1184 0 0 0.1184 1271.2701 1557.3199)">
			<stop  offset="0" style="stop-color:#BCBEC0"/>
			<stop  offset="0.0236" style="stop-color:#C3C5C7"/>
			<stop  offset="0.1126" style="stop-color:#D9DADB"/>
			<stop  offset="0.2172" style="stop-color:#EAEBEB"/>
			<stop  offset="0.3458" style="stop-color:#F6F6F7"/>
			<stop  offset="0.5244" style="stop-color:#FDFDFD"/>
			<stop  offset="1" style="stop-color:#FFFFFF"/>
		</linearGradient>
		<path fill="url(#SVGID_6_)" d="M20.103,68.157c0.215,0.372,0.616,0.573,1.016,0.53c0.029-0.029,4.722-1.031,5.552-1.231
			l0.086-0.229l-5.638,1.231c-0.344,0.056-0.672-0.101-0.858-0.401L20.103,68.157z"/>
		
			<linearGradient id="SVGID_7_" gradientUnits="userSpaceOnUse" x1="-10570.4941" y1="-12599.9219" x2="-10534.3398" y2="-12599.9219" gradientTransform="matrix(0.1184 0 0 0.1184 1271.2701 1557.3199)">
			<stop  offset="0" style="stop-color:#BCBEC0"/>
			<stop  offset="0.1001" style="stop-color:#A2A3A5"/>
			<stop  offset="0.2301" style="stop-color:#87888A"/>
			<stop  offset="0.372" style="stop-color:#727375"/>
			<stop  offset="0.5296" style="stop-color:#636466"/>
			<stop  offset="0.7154" style="stop-color:#5B5C5E"/>
			<stop  offset="1" style="stop-color:#58595B"/>
		</linearGradient>
		<path fill="url(#SVGID_7_)" d="M20.26,68.058c-0.157-0.3-0.129-0.672,0.057-0.93l3.921-4.278l-0.257-0.029l-3.821,4.164l0,0V67
			c-0.244,0.342-0.273,0.801-0.058,1.158L20.26,68.058z"/>
		
			<linearGradient id="SVGID_8_" gradientUnits="userSpaceOnUse" x1="-249.6187" y1="-7608.7236" x2="-249.6187" y2="-7632.2222" gradientTransform="matrix(-0.2372 0 0 0.2372 28.2172 1872.5293)">
			<stop  offset="0" style="stop-color:#FFFFFF"/>
			<stop  offset="1" style="stop-color:#A7A9AC"/>
		</linearGradient>
		<path fill="url(#SVGID_8_)" d="M85.509,62.821l-0.242,0.058l3.892,4.177c0,0,0.185,0.315,0.185,0.658h0.244
			c0-0.4-0.372-0.859-0.372-0.859C89.057,66.684,85.509,62.821,85.509,62.821z"/>
		
			<radialGradient id="SVGID_9_" cx="-10614.2617" cy="-13075.5771" r="813.522" gradientTransform="matrix(0.1184 0 0 0.1184 1271.2701 1557.3199)" gradientUnits="userSpaceOnUse">
			<stop  offset="0" style="stop-color:#E3EAEE"/>
			<stop  offset="0.1822" style="stop-color:#EEF2F4"/>
			<stop  offset="0.3876" style="stop-color:#FFFFFF"/>
			<stop  offset="0.4581" style="stop-color:#FBFCFC"/>
			<stop  offset="0.5247" style="stop-color:#F0F1F4"/>
			<stop  offset="0.5898" style="stop-color:#DDE0E5"/>
			<stop  offset="0.6539" style="stop-color:#C2C8D1"/>
			<stop  offset="0.7167" style="stop-color:#A0A9B8"/>
			<stop  offset="0.7416" style="stop-color:#909BAC"/>
			<stop  offset="0.7764" style="stop-color:#A7B0BE"/>
			<stop  offset="0.8501" style="stop-color:#D1D7E1"/>
			<stop  offset="0.8876" style="stop-color:#E2E6EE"/>
			<stop  offset="0.9038" style="stop-color:#D9DEE7"/>
			<stop  offset="0.9303" style="stop-color:#C1C9D4"/>
			<stop  offset="0.9636" style="stop-color:#99A6B6"/>
			<stop  offset="1" style="stop-color:#667A8E"/>
		</radialGradient>
		<path fill="url(#SVGID_9_)" d="M88.443,67.286l-8.499-9.073c-1.202,0.501-2.619,0.472-3.792-0.229
			c-1.231-0.687-1.946-1.889-2.103-3.177v0.029c-0.244-1.917-1.317-3.72-3.134-4.751l-3.449-2.003l15.368-8.886l-1.659-2.933
			l-17.1,9.873l-2.963-1.717V41l17.071-9.888l-1.688-2.934l-15.383,8.915v-4.007c0-2.075-0.987-3.92-2.56-5.094l0,0
			c-1.016-0.773-1.689-2.004-1.689-3.377c0-1.402,0.674-2.633,1.689-3.406h0.029L54.988,9.276c-0.042-0.086-0.129-0.2-0.215-0.2
			c-0.129,0-0.257,0.086-0.257,0.2L50.938,21.21c1.031,0.773,1.703,2.004,1.703,3.406c0,1.374-0.672,2.605-1.703,3.377h0.044
			c-1.575,1.173-2.562,3.019-2.562,5.094v3.978l-15.41-8.886l-1.689,2.934l17.1,9.873v3.434l-2.963,1.717L28.36,36.263l-1.689,2.933
			l15.369,8.886l-3.448,2.003l0,0c-1.789,1.03-2.892,2.833-3.105,4.751v-0.029c-0.186,1.288-0.902,2.49-2.104,3.177
			c-1.202,0.701-2.618,0.744-3.82,0.229l0,0l-8.501,9.073c-0.1,0.085-0.129,0.2-0.1,0.315c0.1,0.085,0.215,0.129,0.315,0.085
			l12.134-2.833c0.157-1.302,0.902-2.49,2.076-3.176c1.231-0.716,2.618-0.745,3.777-0.23v-0.029c1.788,0.774,3.892,0.716,5.68-0.328
			l3.477-1.989v17.771h3.362V57.14l2.99-1.702l2.948,1.702v19.732h3.391V59.086l3.449,2.004c1.789,1.044,3.921,1.102,5.667,0.328
			v0.029c1.173-0.514,2.59-0.486,3.792,0.201c1.202,0.701,1.946,1.903,2.074,3.205h0.029l12.105,2.833
			c0.086,0.029,0.244,0,0.315-0.085C88.571,67.485,88.571,67.37,88.443,67.286z M54.773,51.516l-2.99-1.717v-3.434l2.99-1.702
			l2.948,1.702v3.434L54.773,51.516z M51.783,33.087c0-1.631,1.344-2.976,2.99-2.976c1.632,0,2.948,1.345,2.948,2.976v5.953
			l-2.948,1.717l-2.99-1.717V33.087z M43.269,58.156c-1.444,0.83-3.234,0.329-4.063-1.087c-0.801-1.431-0.344-3.234,1.087-4.064
			l5.166-2.948l2.963,1.689v3.434L43.269,58.156z M70.298,57.068c-0.801,1.416-2.618,1.917-4.077,1.087l-5.109-2.976v-3.434
			l2.963-1.689l5.137,2.948C70.628,53.835,71.129,55.638,70.298,57.068z M70.914,50.086L70.914,50.086h0.029H70.914z M64.589,61.089
			h-0.029l0,0H64.589z M44.943,61.089L44.943,61.089l-0.042,0.014L44.943,61.089z"/>
		<polygon fill="#FFFFFF" points="54.773,51.746 51.597,49.899 51.783,49.799 54.773,51.502 		"/>
		<polygon fill="#FFFFFF" points="57.907,49.899 54.773,51.746 54.773,51.502 57.721,49.799 		"/>
		<polygon fill="#FFFFFF" points="57.907,49.942 57.907,46.28 57.721,46.394 57.721,49.828 		"/>
		<polygon fill="#C7C8CA" points="57.907,46.28 54.773,44.448 54.773,44.706 57.721,46.394 		"/>
		<polygon fill="#58595B" points="51.597,46.28 54.773,44.448 54.773,44.706 51.783,46.394 		"/>
		<polygon fill="#808285" points="51.597,49.942 51.597,46.28 51.783,46.394 51.783,49.828 		"/>
		
			<linearGradient id="SVGID_10_" gradientUnits="userSpaceOnUse" x1="-10413.2891" y1="-12671.7295" x2="-10328.9082" y2="-12671.7295" gradientTransform="matrix(0.1184 0 0 0.1184 1271.2701 1557.3199)">
			<stop  offset="0" style="stop-color:#A7A9AC"/>
			<stop  offset="0.0784" style="stop-color:#C1C2C4"/>
			<stop  offset="0.1729" style="stop-color:#D7D8DA"/>
			<stop  offset="0.2822" style="stop-color:#E9EAEA"/>
			<stop  offset="0.4138" style="stop-color:#F6F6F6"/>
			<stop  offset="0.5902" style="stop-color:#FDFDFD"/>
			<stop  offset="1" style="stop-color:#FFFFFF"/>
		</linearGradient>
		<path fill="url(#SVGID_10_)" d="M38.591,55.537c-0.029,0.572,0.129,1.145,0.428,1.646c0.874,1.517,2.805,2.032,4.322,1.159
			l5.237-3.019l-0.186-0.115l-5.152,2.948c-1.416,0.83-3.234,0.344-4.063-1.073c-0.271-0.472-0.372-1.016-0.372-1.546H38.591z"/>
		
			<linearGradient id="SVGID_11_" gradientUnits="userSpaceOnUse" x1="-10413.2686" y1="-12708.084" x2="-10355.5" y2="-12708.084" gradientTransform="matrix(0.1184 0 0 0.1184 1271.2701 1557.3199)">
			<stop  offset="0" style="stop-color:#A7A9AC"/>
			<stop  offset="0.0557" style="stop-color:#9FA1A4"/>
			<stop  offset="0.3124" style="stop-color:#808284"/>
			<stop  offset="0.5607" style="stop-color:#6A6B6D"/>
			<stop  offset="0.7948" style="stop-color:#5D5E60"/>
			<stop  offset="1" style="stop-color:#58595B"/>
		</linearGradient>
		<path fill="url(#SVGID_11_)" d="M38.804,55.537c0-0.987,0.53-1.96,1.488-2.504l5.138-2.976v-0.229l-5.267,3.033
			c-0.743,0.415-1.229,1.116-1.444,1.917c-0.073,0.258-0.129,0.501-0.129,0.758H38.804z"/>
		<path fill="#FFFFFF" d="M70.914,55.494c0.029,0.573-0.129,1.145-0.401,1.646c-0.858,1.503-2.833,2.047-4.35,1.173l-5.237-3.033
			l0.185-0.1l5.152,2.948c1.446,0.815,3.234,0.343,4.063-1.088c0.272-0.487,0.401-1.03,0.401-1.546H70.914z"/>
		
			<linearGradient id="SVGID_12_" gradientUnits="userSpaceOnUse" x1="-10197.9492" y1="-12708.501" x2="-10140.4238" y2="-12708.501" gradientTransform="matrix(0.1184 0 0 0.1184 1271.2701 1557.3477)">
			<stop  offset="0" style="stop-color:#808285"/>
			<stop  offset="0.1606" style="stop-color:#8E8F92"/>
			<stop  offset="0.4615" style="stop-color:#B1B3B4"/>
			<stop  offset="0.8674" style="stop-color:#EBEBEC"/>
			<stop  offset="1" style="stop-color:#FFFFFF"/>
		</linearGradient>
		<path fill="url(#SVGID_12_)" d="M70.728,55.523c-0.029-1.002-0.559-1.974-1.474-2.49l-5.151-2.976v-0.257l5.237,3.048
			c0.745,0.415,1.259,1.102,1.475,1.932c0.071,0.229,0.1,0.501,0.1,0.744H70.728z"/>
		<polygon fill="#FFFFFF" points="48.578,55.323 48.578,51.659 48.392,51.774 48.392,55.208 		"/>
		<polygon fill="#C7C8CA" points="45.431,49.828 48.578,51.659 48.392,51.774 45.431,50.057 		"/>
		<polygon fill="#808285" points="60.898,76.672 60.898,58.728 61.112,59.086 61.112,76.872 		"/>
		<polygon fill="#58595B" points="57.721,76.872 61.112,76.872 60.898,76.672 57.907,76.672 		"/>
		<polygon fill="#FFFFFF" points="57.721,57.126 57.721,76.872 57.907,76.672 57.907,57.011 		"/>
		<polygon fill="#C7C8CA" points="54.731,55.18 57.907,57.011 57.721,57.126 54.731,55.408 		"/>
		<polygon fill="#58595B" points="51.597,57.011 54.773,55.208 54.773,55.437 51.783,57.14 		"/>
		<polygon fill="#808285" points="51.597,76.672 51.597,57.011 51.783,57.14 51.783,76.872 		"/>
		<polygon fill="#58595B" points="48.421,76.872 51.812,76.872 51.597,76.672 48.607,76.672 		"/>
		<polygon fill="#FFFFFF" points="48.392,59.086 48.392,76.872 48.607,76.672 48.578,58.728 		"/>
		<path fill="#58595B" d="M48.421,59.115l-3.477,1.989c-1.788,1.03-3.892,1.087-5.68,0.314v0.029
			c-1.159-0.514-2.546-0.458-3.777,0.23c-1.173,0.686-1.918,1.888-2.076,3.176l-0.186-0.172c0.215-1.345,0.987-2.489,2.162-3.19
			c1.229-0.701,2.675-0.788,3.977-0.243h-0.029c1.818,0.772,3.821,0.658,5.509-0.329l3.764-2.161L48.421,59.115z"/>
		<path fill="#58595B" d="M20.961,67.572c0.073,0.114,0.186,0.142,0.315,0.085l12.134-2.804l-0.186-0.172l-12.005,2.776
			L20.961,67.572z"/>
		<path fill="#FFFFFF" d="M29.562,58.184l-8.501,9.101c-0.1,0.056-0.157,0.2-0.1,0.286l0.257-0.115l8.372-9.014L29.562,58.184z"/>
		<path fill="#FFFFFF" d="M42.039,48.068l-3.477,2.003c-1.789,1.03-2.863,2.833-3.12,4.736l0,0
			c-0.142,1.288-0.887,2.475-2.089,3.177c-1.202,0.687-2.618,0.73-3.791,0.2l0.029,0.258c1.273,0.486,2.69,0.372,3.848-0.287
			c1.244-0.715,2.047-1.945,2.189-3.319l0,0c0.257-1.932,1.359-3.606,3.063-4.593l3.749-2.175H42.039z"/>
		<polygon fill="#58595B" points="64.074,49.799 60.898,51.646 61.112,51.774 64.074,50.057 		"/>
		<polygon fill="#808285" points="60.927,55.28 60.927,51.602 61.112,51.746 61.112,55.151 		"/>
		<polygon fill="#FFFFFF" points="76.395,28.451 60.898,37.422 61.112,37.064 76.495,28.179 		"/>
		<polygon fill="#C7C8CA" points="78.183,31.112 76.495,28.179 76.395,28.451 77.912,31.055 		"/>
		<polygon fill="#58595B" points="61.112,41 78.183,31.14 77.912,31.055 60.898,40.899 		"/>
		<polygon fill="#808285" points="60.898,44.534 60.898,40.899 61.112,41 61.112,44.433 		"/>
		<polygon fill="#FFFFFF" points="64.074,46.365 60.898,44.534 61.112,44.405 64.074,46.136 		"/>
		<polygon fill="#FFFFFF" points="81.073,36.521 64.074,46.365 64.074,46.136 81.145,36.263 		"/>
		<polygon fill="#C7C8CA" points="82.834,39.197 81.145,36.263 81.073,36.521 82.561,39.125 		"/>
		<polygon fill="#58595B" points="67.495,48.083 82.834,39.197 82.59,39.125 67.065,48.083 		"/>
		
			<linearGradient id="SVGID_13_" gradientUnits="userSpaceOnUse" x1="-10172.9385" y1="-12701.9229" x2="-10064.165" y2="-12701.9229" gradientTransform="matrix(0.1184 0 0 0.1184 1271.2701 1557.3199)">
			<stop  offset="0" style="stop-color:#FFFFFF"/>
			<stop  offset="0.2108" style="stop-color:#FDFDFD"/>
			<stop  offset="0.3195" style="stop-color:#F5F5F5"/>
			<stop  offset="0.4049" style="stop-color:#E8E8E9"/>
			<stop  offset="0.4776" style="stop-color:#D5D6D7"/>
			<stop  offset="0.5169" style="stop-color:#C7C8CA"/>
			<stop  offset="0.555" style="stop-color:#DADADC"/>
			<stop  offset="0.6053" style="stop-color:#EBEBEC"/>
			<stop  offset="0.668" style="stop-color:#F6F6F7"/>
			<stop  offset="0.7559" style="stop-color:#FDFDFD"/>
			<stop  offset="1" style="stop-color:#FFFFFF"/>
		</linearGradient>
		<path fill="url(#SVGID_13_)" d="M67.466,48.068l3.449,2.003c1.788,1.045,2.89,2.833,3.105,4.765l0.029-0.029
			c0.157,1.288,0.872,2.475,2.074,3.177c1.202,0.687,2.619,0.73,3.821,0.229l-0.071,0.229c-1.259,0.5-2.676,0.4-3.85-0.287
			c-1.231-0.715-2.032-1.917-2.189-3.319l0,0c-0.244-1.932-1.317-3.606-3.019-4.593l-3.75-2.175H67.466z"/>
		<path fill="#C7C8CA" d="M88.542,67.585c0.029-0.1,0-0.228-0.1-0.3l-8.499-9.073l-0.071,0.229l8.413,9.014L88.542,67.585z"/>
		<path fill="#808285" d="M76.094,64.853l12.134,2.833c0.086,0.044,0.244,0.029,0.315-0.085l-0.257-0.144L76.266,64.68
			L76.094,64.853z"/>
		
			<linearGradient id="SVGID_14_" gradientUnits="userSpaceOnUse" x1="-10224.9805" y1="-12631.2812" x2="-10095.1846" y2="-12631.2812" gradientTransform="matrix(0.1184 0 0 0.1184 1271.2701 1557.3199)">
			<stop  offset="0.0112" style="stop-color:#C7C8CA"/>
			<stop  offset="0.1277" style="stop-color:#C4C5C7"/>
			<stop  offset="0.2184" style="stop-color:#BABBBD"/>
			<stop  offset="0.3004" style="stop-color:#AAABAD"/>
			<stop  offset="0.3773" style="stop-color:#929395"/>
			<stop  offset="0.45" style="stop-color:#747577"/>
			<stop  offset="0.5056" style="stop-color:#58595B"/>
			<stop  offset="0.6695" style="stop-color:#9A9A9B"/>
			<stop  offset="0.8236" style="stop-color:#D0D1D1"/>
			<stop  offset="0.9379" style="stop-color:#F2F2F2"/>
			<stop  offset="1" style="stop-color:#FFFFFF"/>
		</linearGradient>
		<path fill="url(#SVGID_14_)" d="M61.112,59.086l3.42,2.004c1.818,1.031,3.95,1.102,5.695,0.328l0,0
			c1.173-0.5,2.59-0.457,3.792,0.23c1.202,0.701,1.917,1.903,2.074,3.176l0.173-0.171c-0.173-1.317-0.973-2.505-2.147-3.177
			c-1.202-0.686-2.69-0.787-3.978-0.228v-0.029c-1.788,0.773-3.791,0.658-5.48-0.315l-3.762-2.175L61.112,59.086z"/>
		<g>
			<polygon fill="#FFFFFF" points="57.936,33.087 57.936,39.125 57.721,39.01 57.721,33.087 			"/>
			
				<linearGradient id="SVGID_15_" gradientUnits="userSpaceOnUse" x1="-10303.8271" y1="-12887.0293" x2="-10248.9082" y2="-12887.0293" gradientTransform="matrix(0.1184 0 0 0.1184 1271.2911 1557.3228)">
				<stop  offset="0" style="stop-color:#808285"/>
				<stop  offset="1" style="stop-color:#FFFFFF"/>
			</linearGradient>
			<path fill="url(#SVGID_15_)" d="M51.597,33.087c0-1.774,1.388-3.176,3.134-3.176c0.874,0,1.675,0.343,2.26,0.944
				c0.572,0.601,0.916,1.374,0.916,2.232h-0.186c0-1.631-1.315-2.976-2.99-2.976c-1.63,0-2.948,1.345-2.948,2.976H51.597z"/>
			<polygon fill="#808285" points="51.597,33.087 51.597,39.125 51.812,39.01 51.812,33.087 			"/>
			<polygon fill="#FFFFFF" points="51.597,39.125 54.773,40.957 54.773,40.727 51.812,39.01 			"/>
			<polygon fill="#FFFFFF" points="57.936,39.125 54.773,40.957 54.773,40.727 57.721,39.01 			"/>
			<polygon fill="#C7C8CA" points="26.943,39.125 42.497,48.068 42.067,48.083 26.67,39.197 			"/>
			<polygon fill="#FFFFFF" points="28.36,36.263 26.67,39.197 26.943,39.125 28.46,36.521 			"/>
			<polygon fill="#FFFFFF" points="45.458,46.136 28.36,36.263 28.46,36.521 45.458,46.365 			"/>
			<polygon fill="#FFFFFF" points="48.636,44.534 45.458,46.365 45.458,46.136 48.421,44.419 			"/>
			<polygon fill="#FFFFFF" points="48.636,40.857 48.636,44.534 48.421,44.419 48.421,40.985 			"/>
			<polygon fill="#C7C8CA" points="31.622,31.055 48.636,40.857 48.421,40.985 31.35,31.112 			"/>
			<polygon fill="#FFFFFF" points="33.038,28.179 31.35,31.112 31.622,31.055 33.11,28.451 			"/>
			<polygon fill="#FFFFFF" points="48.421,37.064 33.038,28.179 33.11,28.451 48.636,37.422 			"/>
			<path fill="#FFFFFF" d="M48.421,37.064v-3.978c0-2.089,0.987-3.92,2.562-5.094l0,0c1.016-0.773,1.688-2.004,1.688-3.377
				c0-1.402-0.672-2.633-1.688-3.406l0.215-0.086c1.072,0.858,1.688,2.118,1.688,3.491c0,1.403-0.672,2.705-1.789,3.549V28.15
				c-1.573,1.188-2.46,2.991-2.46,4.937v4.336L48.421,37.064z"/>
			<path fill="#FFFFFF" d="M54.773,9.077c-0.1,0-0.185,0.086-0.185,0.2L50.982,21.21l0.215-0.086l3.576-11.762V9.077z"/>
			<path fill="#FFFFFF" d="M58.623,21.21L55.017,9.276c-0.029-0.086-0.1-0.2-0.244-0.2v0.286l3.635,11.762L58.623,21.21z"/>
			
				<linearGradient id="SVGID_16_" gradientUnits="userSpaceOnUse" x1="-6157.4146" y1="-7807.5518" x2="-6157.4146" y2="-7738.4429" gradientTransform="matrix(0.2372 0 0 0.2372 1519.4615 1872.5068)">
				<stop  offset="0" style="stop-color:#58595B"/>
				<stop  offset="0.0558" style="stop-color:#616163"/>
				<stop  offset="0.1451" style="stop-color:#78797A"/>
				<stop  offset="0.2567" style="stop-color:#9E9EA0"/>
				<stop  offset="0.3849" style="stop-color:#D2D2D3"/>
				<stop  offset="0.4831" style="stop-color:#FFFFFF"/>
				<stop  offset="0.7142" style="stop-color:#C9C9CB"/>
				<stop  offset="1" style="stop-color:#808285"/>
			</linearGradient>
			<path fill="url(#SVGID_16_)" d="M61.141,37.064v-3.978c0-2.089-1.016-3.92-2.56-5.094l0,0c-1.017-0.773-1.69-2.004-1.69-3.377
				c0-1.402,0.672-2.633,1.732-3.406l-0.215-0.086c-1.087,0.844-1.703,2.146-1.703,3.491c0,1.374,0.645,2.719,1.789,3.549
				l-0.029-0.014c1.574,1.188,2.462,2.991,2.462,4.937v4.336L61.141,37.064z"/>
		</g>
	</g>
	<g>
		<g>
			<path fill="#0066B3" d="M275.843,117.385l2.779-11.608c0.286-1.145,0.409-2.003,0.409-2.534c0-0.981-0.572-1.512-1.717-1.512
				c-0.94,0-1.798,0.491-2.207,1.185c-0.245,0.49-0.776,2.044-0.981,2.861l-2.779,11.608h-10.341l2.779-11.608
				c0.286-1.145,0.409-1.962,0.409-2.534c0-0.899-0.654-1.471-1.758-1.471c-1.717,0-2.575,1.022-3.27,3.883l-2.82,11.731h-10.3
				l5.518-23.012h9.605l-0.409,1.635c-0.204,0.695-0.368,1.144-0.409,1.349c-0.041,0.163-0.041,0.286-0.163,0.613l-0.163,0.409
				h0.163c2.044-3.433,4.496-4.741,8.788-4.741c2.616,0,4.332,0.613,5.313,1.88c0.531,0.695,0.736,1.431,0.817,2.861h0.205
				c0.981-2.085,1.757-2.902,3.433-3.679c1.471-0.695,3.229-1.022,5.232-1.022c4.006,0,6.131,1.594,6.131,4.537
				c0,1.308-0.204,2.657-0.695,4.782l-3.474,14.387H275.843z"/>
			<path fill="#0066B3" d="M315.858,117.385h-10.341c0.082-0.817,0.654-2.861,1.308-4.66h-0.204
				c-1.921,3.76-4.087,5.028-8.502,5.028c-4.742,0-7.194-2.371-7.194-6.99c0-3.679,1.308-8.788,3.025-11.853
				c2.085-3.801,4.987-5.436,9.564-5.436c4.414,0,6.335,1.553,6.335,5.232v0.572h0.204l0.491-2.697
				c0.205-1.226,0.245-1.472,0.491-2.207h10.341L315.858,117.385z M301.593,108.188c0,1.512,0.899,2.371,2.534,2.371
				c1.553,0,2.739-0.776,3.475-2.289c0.613-1.267,1.062-2.984,1.062-4.088c0-1.39-0.94-2.125-2.697-2.125
				C303.391,102.057,301.593,104.551,301.593,108.188z"/>
			<path fill="#0066B3" d="M340.136,104.959c-1.022-0.082-1.472-0.123-2.085-0.123c-1.798,0-3.352,0.409-4.414,1.185
				c-0.94,0.695-1.758,2.33-2.289,4.619l-1.635,6.744h-10.341l5.518-23.012h9.279l-0.164,0.613l-0.409,2.003
				c-0.163,0.695-0.327,1.349-0.531,2.003c-0.082,0.327-0.164,0.654-0.205,0.981h0.123c1.022-2.534,1.798-3.72,2.984-4.619
				c1.104-0.858,2.534-1.308,4.006-1.308c0.94,0,1.717,0.082,2.697,0.327L340.136,104.959z"/>
			<path fill="#0066B3" d="M349.292,117.385H338.95l5.518-23.012c2.085,0.204,3.678,0.286,5.599,0.286
				c1.921,0,3.188-0.082,4.742-0.286L349.292,117.385z M349.046,93.106c-1.512,0-2.82-0.123-3.27-0.368
				c-0.368-0.163-0.531-0.531-0.531-1.226c0-0.981,0.368-2.207,0.777-2.698c0.368-0.408,0.654-0.531,1.758-0.654
				c0.531-0.041,1.185-0.082,1.471-0.082h3.066c2.861,0,3.392,0.205,3.392,1.431c0,1.226-0.409,2.452-0.981,2.984
				c-0.49,0.491-1.267,0.613-3.229,0.613H349.046z"/>
			<path fill="#0066B3" d="M367.357,96.049c-0.041,0.368-0.123,0.654-0.245,0.899c-0.286,0.981-0.286,0.981-0.368,1.757
				c1.962-3.515,4.619-4.946,9.278-4.946c4.374,0,6.908,1.758,6.908,4.823c0,1.186-0.245,3.107-0.613,4.66l-3.433,14.143h-10.341
				l2.739-11.445c0.368-1.553,0.491-2.126,0.491-2.657c0-0.94-0.695-1.512-1.962-1.512c-1.962,0-3.188,1.308-3.883,4.169
				l-2.739,11.445h-10.341l5.518-23.012h9.401L367.357,96.049z"/>
			<path fill="#0066B3" d="M393.884,108.679c-0.041,0.245-0.041,0.49-0.041,0.695c0,1.839,1.267,2.493,4.864,2.493
				c2.248,0,4.987-0.368,8.993-1.267l-2.575,6.049c-4.088,1.144-7.276,1.594-10.954,1.594c-6.948,0-10.259-2.575-10.259-8.011
				c0-5.068,1.962-10.586,4.782-13.407c2.207-2.248,5.681-3.352,10.586-3.352c3.597,0,5.968,0.409,7.725,1.308
				c2.085,1.063,3.188,3.106,3.188,5.722c0,2.453-0.409,4.333-1.717,8.175H393.884z M401.854,103.406
				c0.082-0.49,0.123-0.776,0.123-1.104c0-1.512-1.022-2.289-2.984-2.289c-2.248,0-3.801,1.267-4.251,3.392H401.854z"/>
		</g>
	</g>
</g>
</svg>
